<svg width="284" height="223" viewBox="0 0 284 223" fill="none" xmlns="http://www.w3.org/2000/svg">
<g clip-path="url(#clip0_116_967)">
<path d="M271.664 27.2776L142.49 33.0202C142.164 33.0346 141.836 33.0346 141.51 33.0202L12.3359 27.2776H11.0643C4.95318 27.2776 0 32.2401 0 38.3608V172.416C0 178.219 4.46796 183.04 10.2457 183.469C36.933 185.451 108.818 190.761 142 192.928C175.182 190.761 247.067 185.452 273.754 183.469C279.531 183.04 284 178.219 284 172.416V38.3608C284 32.2401 279.047 27.2776 272.936 27.2776H271.664Z" fill="#E67320"/>
<path d="M16.4713 11.5769L7.51164 36.1345L6.42921 170.549L16.4713 156.847C16.4713 156.847 44.213 20.4465 16.4713 11.5769Z" fill="#FAA75A"/>
<path d="M16.4713 156.847L6.42921 170.549L142.001 184.488V171.968C142.001 171.968 68.6922 127.786 16.4713 156.847Z" fill="#FAA75A"/>
<path d="M267.53 156.847L277.572 170.549L142 184.488V171.968C142 171.968 215.309 127.786 267.53 156.847Z" fill="#FAA75A"/>
<path d="M142 171.968V25.0776C142 25.0776 74.7168 -20.8255 16.4713 11.5769V156.847C16.4713 156.847 62.666 136.865 142.001 171.968H142Z" fill="#FFEDCC"/>
<path d="M267.53 11.5769L276.489 36.1345L277.572 170.549L267.53 156.847C267.53 156.847 239.788 20.4465 267.53 11.5769Z" fill="#FAA75A"/>
<path d="M142 171.968V25.0776C142 25.0776 209.284 -20.8255 267.53 11.5769V156.847C267.53 156.847 221.335 136.865 142 171.968Z" fill="#FFEDCC"/>
<path d="M142 41.8635L147.335 171.968L142 173.138V41.8635Z" fill="#FAA75A"/>
<path d="M128.664 36.1345C128.477 36.1345 128.288 36.0835 128.114 35.9773C99.2885 18.3528 64.1386 13.228 31.6778 21.9174C31.0696 22.078 30.4597 21.6736 30.3121 21.0108C30.1636 20.348 30.5352 19.6784 31.1408 19.5169C64.1505 10.6804 99.8984 15.8936 129.217 33.8198C129.762 34.1529 129.956 34.9058 129.652 35.5015C129.445 35.9059 129.061 36.1345 128.665 36.1345H128.664Z" fill="#6593C7"/>
<path d="M128.664 50.5003C128.477 50.5003 128.288 50.4493 128.114 50.3431C99.2885 32.7185 64.1377 27.5929 31.6778 36.2824C31.0696 36.4455 30.4597 36.0385 30.3121 35.3757C30.1636 34.7129 30.5352 34.0433 31.1408 33.8818C64.1505 25.0454 99.8984 30.2585 129.217 48.1856C129.762 48.5187 129.956 49.2716 129.652 49.8672C129.445 50.2717 129.061 50.5003 128.665 50.5003H128.664Z" fill="#6593C7"/>
<path d="M128.664 64.8661C128.477 64.8661 128.288 64.8151 128.114 64.7088C99.2885 47.0835 64.1377 41.9587 31.6778 50.649C31.0696 50.8113 30.4597 50.4051 30.3121 49.7423C30.1636 49.0795 30.5352 48.4099 31.1408 48.2485C64.1505 39.412 99.8975 44.6269 129.217 62.5513C129.762 62.8844 129.956 63.6373 129.652 64.233C129.445 64.6375 129.061 64.8661 128.665 64.8661H128.664Z" fill="#6593C7"/>
<path d="M128.664 79.2318C128.477 79.2318 128.288 79.1808 128.114 79.0746C99.2885 61.4501 64.1386 56.3244 31.6778 65.0148C31.0696 65.1762 30.4597 64.7709 30.3121 64.1081C30.1636 63.4453 30.5352 62.7757 31.1408 62.6142C64.1505 53.7777 99.8984 58.9918 129.217 76.9171C129.762 77.2502 129.956 78.0031 129.652 78.5988C129.445 79.0032 129.061 79.2318 128.665 79.2318H128.664Z" fill="#6593C7"/>
<path d="M128.664 93.5976C128.477 93.5976 128.288 93.5466 128.114 93.4404C99.2885 75.8159 64.1377 70.6893 31.6778 79.3797C31.0696 79.5403 30.4597 79.1358 30.3121 78.473C30.1636 77.8102 30.5352 77.1406 31.1408 76.9791C64.1505 68.1418 99.8984 73.3567 129.217 91.2829C129.762 91.616 129.956 92.3689 129.652 92.9645C129.445 93.369 129.061 93.5976 128.665 93.5976H128.664Z" fill="#6593C7"/>
<path d="M128.664 107.963C128.477 107.963 128.288 107.912 128.114 107.807C114.031 99.1957 97.7692 93.3639 81.0875 90.9413C80.4691 90.8512 80.0339 90.23 80.1162 89.5536C80.1985 88.8764 80.766 88.4022 81.3844 88.4915C98.3469 90.9549 114.887 96.8878 129.216 105.649C129.761 105.983 129.955 106.735 129.651 107.331C129.444 107.736 129.06 107.964 128.664 107.964V107.963Z" fill="#6593C7"/>
<path d="M128.664 122.329C128.477 122.329 128.288 122.278 128.114 122.172C113.683 113.348 97.0108 107.459 79.8982 105.139C79.2789 105.056 78.8395 104.438 78.9159 103.761C78.9922 103.083 79.5546 102.602 80.1764 102.686C97.5749 105.044 114.533 111.037 129.217 120.014C129.762 120.348 129.956 121.1 129.652 121.696C129.445 122.101 129.061 122.329 128.665 122.329H128.664Z" fill="#6593C7"/>
<path d="M128.664 136.694C128.477 136.694 128.288 136.643 128.114 136.537C113.449 127.57 96.5018 121.645 79.1042 119.399C78.4849 119.319 78.0413 118.706 78.1142 118.028C78.1872 117.35 78.7487 116.859 79.3688 116.945C97.0583 119.228 114.296 125.257 129.217 134.379C129.762 134.712 129.956 135.465 129.652 136.061C129.445 136.466 129.061 136.694 128.665 136.694H128.664Z" fill="#6593C7"/>
<path d="M128.664 151.061C128.477 151.061 128.288 151.01 128.114 150.903C113.449 141.937 96.5018 136.012 79.1042 133.766C78.4849 133.686 78.0413 133.072 78.1142 132.394C78.1872 131.717 78.7487 131.222 79.3688 131.312C97.0583 133.594 114.296 139.623 129.217 148.746C129.762 149.079 129.956 149.832 129.652 150.428C129.445 150.833 129.061 151.061 128.665 151.061H128.664Z" fill="#6593C7"/>
<path d="M252.592 21.9531C252.504 21.9531 252.413 21.9412 252.323 21.9174C234.834 17.2362 215.99 16.5581 197.826 19.9579C197.213 20.0727 196.628 19.6206 196.522 18.9484C196.417 18.2754 196.83 17.6373 197.445 17.5217C215.91 14.0658 235.074 14.7558 252.86 19.5169C253.466 19.6792 253.837 20.348 253.689 21.0108C253.562 21.575 253.101 21.9531 252.592 21.9531Z" fill="#6593C7"/>
<path d="M252.592 36.3181C252.504 36.3181 252.413 36.3062 252.323 36.2824C234.79 31.5884 215.898 30.9196 197.693 34.3475C197.081 34.4682 196.494 34.0127 196.388 33.3397C196.282 32.6667 196.695 32.0277 197.31 31.9121C215.818 28.4273 235.026 29.1088 252.86 33.8818C253.466 34.0441 253.837 34.7129 253.689 35.3757C253.562 35.9399 253.101 36.3181 252.592 36.3181Z" fill="#6593C7"/>
<path d="M252.592 50.6847C252.504 50.6847 252.413 50.6728 252.323 50.649C234.725 45.9372 215.769 45.282 197.504 48.7498C196.896 48.8696 196.304 48.4167 196.197 47.7429C196.091 47.0707 196.503 46.4309 197.118 46.3136C215.687 42.788 234.964 43.4567 252.861 48.2476C253.467 48.4099 253.838 49.0787 253.69 49.7415C253.563 50.3057 253.102 50.6838 252.593 50.6838L252.592 50.6847Z" fill="#6593C7"/>
<path d="M252.592 65.0505C252.504 65.0505 252.413 65.0385 252.323 65.0148C234.734 60.3063 215.785 59.6486 197.527 63.1113C196.913 63.2303 196.327 62.7774 196.22 62.1044C196.113 61.4314 196.526 60.7924 197.141 60.6751C215.705 57.1555 234.972 57.8251 252.86 62.6134C253.466 62.7757 253.837 63.4444 253.689 64.1072C253.562 64.6715 253.101 65.0496 252.592 65.0496V65.0505Z" fill="#6593C7"/>
<path d="M155.336 93.5976C154.94 93.5976 154.556 93.3699 154.349 92.9645C154.044 92.3689 154.239 91.616 154.784 91.2829C184.102 73.3567 219.85 68.1427 252.86 76.9791C253.466 77.1414 253.837 77.8102 253.689 78.473C253.54 79.1358 252.929 79.5403 252.323 79.3797C219.861 70.691 184.712 75.815 155.887 93.4404C155.713 93.5474 155.523 93.5976 155.336 93.5976Z" fill="#6593C7"/>
<path d="M155.336 108.483C154.94 108.483 154.556 108.256 154.349 107.85C154.044 107.255 154.239 106.502 154.784 106.169C184.102 88.2425 219.85 83.0293 252.86 91.865C253.466 92.0273 253.837 92.696 253.689 93.3588C253.54 94.0216 252.929 94.4286 252.323 94.2655C219.861 85.576 184.712 90.7017 155.887 108.326C155.713 108.432 155.523 108.483 155.336 108.483Z" fill="#6593C7"/>
<path d="M155.336 122.849C154.94 122.849 154.556 122.621 154.349 122.216C154.044 121.62 154.239 120.868 154.784 120.534C184.102 102.608 219.85 97.3942 252.86 106.231C253.466 106.393 253.837 107.062 253.689 107.725C253.54 108.387 252.929 108.794 252.323 108.631C219.861 99.9418 184.712 105.067 155.887 122.692C155.713 122.798 155.523 122.849 155.336 122.849Z" fill="#6593C7"/>
<path d="M155.336 137.214C154.94 137.214 154.556 136.986 154.349 136.581C154.044 135.985 154.239 135.233 154.784 134.899C184.102 116.975 219.849 111.759 252.86 120.597C253.466 120.759 253.837 121.428 253.689 122.09C253.54 122.752 252.929 123.158 252.323 122.997C219.861 114.307 184.712 119.432 155.887 137.057C155.713 137.163 155.523 137.214 155.336 137.214Z" fill="#6593C7"/>
<path d="M155.336 151.58C154.94 151.58 154.556 151.352 154.349 150.947C154.044 150.351 154.239 149.598 154.784 149.265C184.102 131.339 219.849 126.125 252.86 134.962C253.466 135.125 253.837 135.793 253.689 136.456C253.54 137.118 252.929 137.524 252.323 137.363C219.861 128.673 184.712 133.796 155.887 151.423C155.713 151.529 155.523 151.58 155.336 151.58Z" fill="#6593C7"/>
<path d="M31.4089 88.2077V135.459C31.4089 135.459 48.983 131.762 72.5197 132.54V84.5011C72.5197 84.5011 56.3894 82.8534 31.4089 88.2085V88.2077Z" fill="#6593C7"/>
<path d="M155.335 33.0109V79.4884C155.335 79.4884 167.369 70.1175 185.559 65.4821V20.7168C185.559 20.7168 171.307 22.785 155.335 33.0109Z" fill="#6593C7"/>
<path d="M115.882 122.478L105.948 128.66L118.842 149.45L128.776 143.268L115.882 122.478Z" fill="#6593C7"/>
<path d="M82.1682 139.781C115.557 139.781 142.624 112.668 142.624 79.2216C142.624 45.7755 115.557 18.6621 82.1682 18.6621C48.7792 18.6621 21.7121 45.7755 21.7121 79.2216C21.7121 112.668 48.7792 139.781 82.1682 139.781Z" fill="#0B6EE1" fill-opacity="0.9"/>
<path d="M117.573 114.687C137.127 95.1003 137.127 63.3431 117.573 43.7559C98.0197 24.1688 66.3168 24.1688 46.7631 43.7559C27.2093 63.3431 27.2093 95.1002 46.7631 114.687C66.3168 134.275 98.0197 134.275 117.573 114.687Z" fill="#AAE0FE"/>
<path d="M124.701 52.7555C110.108 29.2252 79.2374 21.9999 55.7473 36.6163L108.589 121.827C132.079 107.21 139.292 76.2858 124.701 52.7555Z" fill="#8CCDF5"/>
<path d="M60.2797 43.9258C82.5398 30.0741 111.418 35.8481 126.8 56.5139C126.155 55.2444 125.464 53.9876 124.7 52.7555C110.108 29.2252 79.2365 21.9999 55.7464 36.6163C32.2563 51.2328 25.0433 82.1575 39.6348 105.688C40.3991 106.92 41.2177 108.097 42.0677 109.239C30.3901 86.2686 38.0196 57.7775 60.2789 43.9258H60.2797Z" fill="#6593C7"/>
<path d="M126.8 56.5139C126.485 55.8928 126.156 55.2741 125.815 54.6598C125.457 54.0208 125.09 53.3843 124.7 52.7555C110.108 29.2252 79.2365 21.9999 55.7464 36.6163L60.2797 43.9258C82.5398 30.0741 111.418 35.8481 126.8 56.5139Z" fill="#4C77AD"/>
<path d="M125.441 138.445L115.994 144.324C113.322 145.987 112.501 149.504 114.162 152.181L154.775 217.673C158.056 222.963 164.996 224.587 170.277 221.301C175.558 218.015 177.18 211.063 173.899 205.773L133.285 140.281C131.625 137.604 128.114 136.782 125.442 138.445H125.441Z" fill="#0B6EE1" fill-opacity="0.9"/>
<path d="M118.948 147.664C117.649 148.472 117.25 150.182 118.057 151.482L157.643 215.317C158.45 216.618 160.157 217.018 161.456 216.21C162.754 215.402 163.153 213.692 162.346 212.391L122.76 148.556C121.953 147.255 120.246 146.855 118.948 147.663L118.948 147.664Z" fill="#FAFBFF" fill-opacity="0.68"/>
</g>
<defs>
<clipPath id="clip0_116_967">
<rect width="284" height="223" fill="white"/>
</clipPath>
</defs>
</svg>
