<svg width="728" height="477" viewBox="0 0 728 477" fill="none" xmlns="http://www.w3.org/2000/svg">
<path d="M723.838 28.6639L661.883 101.661C652.279 112.969 647.018 127.231 647.018 141.956V327.31C647.018 365.919 615.132 397.222 575.805 397.222H566.512V278.389C588.864 278.389 606.979 260.605 606.979 238.662C606.979 216.718 588.864 198.943 566.512 198.943V149.69C566.512 111.081 534.636 79.7782 495.3 79.7782H161.483V69.9119C161.483 31.303 193.369 0 232.696 0H710.165C725.253 0 733.505 17.2857 723.838 28.6639Z" fill="#E67320"/>
<path d="M566.512 397.222V407.088C566.512 445.706 534.636 477 495.3 477H17.8394C2.7424 477 -5.50042 459.723 4.15775 448.336L66.1214 375.348C75.7261 364.031 80.978 349.778 80.978 335.053V149.69C80.978 111.081 112.863 79.7781 152.19 79.7781H161.484V198.611C139.132 198.611 121.017 216.395 121.017 238.338C121.017 260.282 139.132 278.057 161.484 278.057V327.31C161.484 365.919 193.369 397.222 232.696 397.222H566.512Z" fill="#0B6EE1"/>
<path d="M340.298 294.679C332.393 302.439 319.584 302.439 311.688 294.679L283.079 266.591L254.46 294.679C246.565 302.439 233.755 302.439 225.851 294.679C217.946 286.918 217.955 274.352 225.851 266.591L254.46 238.504L225.851 210.417C217.955 202.657 217.955 190.082 225.851 182.33C229.803 178.45 234.984 176.51 240.156 176.51C245.327 176.51 250.508 178.45 254.46 182.33L283.079 210.417L311.688 182.33C319.584 174.57 332.393 174.57 340.298 182.33C344.241 186.202 346.217 191.288 346.217 196.374C346.217 201.46 344.241 206.537 340.298 210.417L311.688 238.504L340.298 266.591C348.193 274.352 348.193 286.927 340.298 294.679Z" fill="#353739"/>
<path d="M502.146 294.679C494.241 302.439 481.432 302.439 473.536 294.679L444.926 266.591L416.308 294.679C408.412 302.439 395.603 302.439 387.699 294.679C379.794 286.918 379.803 274.352 387.699 266.591L416.308 238.504L387.699 210.417C379.803 202.657 379.803 190.082 387.699 182.33C391.651 178.45 396.831 176.51 402.003 176.51C407.175 176.51 412.356 178.45 416.308 182.33L444.926 210.417L473.536 182.33C481.432 174.57 494.241 174.57 502.146 182.33C506.089 186.202 508.065 191.288 508.065 196.374C508.065 201.46 506.089 206.537 502.146 210.417L473.536 238.504L502.146 266.591C510.041 274.352 510.041 286.927 502.146 294.679Z" fill="#353739"/>
</svg>
