<svg width="24" height="24" viewBox="0 0 24 24" fill="none" xmlns="http://www.w3.org/2000/svg">
<g clip-path="url(#clip0_393_29)">
<path d="M12 0C5.37281 0 0 5.37281 0 12C0 18.6272 5.37281 24 12 24C18.6272 24 24 18.6272 24 12C24 5.37281 18.6272 0 12 0ZM17.2969 9.79688L11.2969 15.7969C10.8562 16.2375 10.1438 16.2375 9.70781 15.7969L6.70781 12.7969C6.26719 12.3562 6.26719 11.6438 6.70781 11.2078C7.14844 10.7719 7.86094 10.7672 8.29688 11.2078L10.5 13.4109L15.7031 8.20312C16.1437 7.7625 16.8562 7.7625 17.2922 8.20312C17.7281 8.64375 17.7328 9.35625 17.2922 9.79219L17.2969 9.79688Z" fill="#E67320"/>
<path d="M17.2922 9.79221L17.2969 9.7969L11.2969 15.7969C10.8563 16.2375 10.1438 16.2375 9.70782 15.7969L6.70782 12.7969C6.26719 12.3563 6.26719 11.6438 6.70782 11.2078C7.14844 10.7719 7.86094 10.7672 8.29688 11.2078L10.5 13.411L15.7031 8.20315C16.1438 7.76252 16.8563 7.76252 17.2922 8.20315C17.7281 8.64377 17.7328 9.35627 17.2922 9.79221Z" fill="#FAFBFF"/>
</g>
<defs>
<clipPath id="clip0_393_29">
<rect width="24" height="24" fill="white"/>
</clipPath>
</defs>
</svg>
