<svg width="41" height="41" viewBox="0 0 41 41" fill="none" xmlns="http://www.w3.org/2000/svg">
<g id="SocialNetworks">
<path id="Vector" d="M20.75 40.5C31.7957 40.5 40.75 31.5457 40.75 20.5C40.75 9.4543 31.7957 0.5 20.75 0.5C9.7043 0.5 0.75 9.4543 0.75 20.5C0.75 31.5457 9.7043 40.5 20.75 40.5Z" fill="#0B6EE1"/>
<path id="Vector_2" d="M22.846 20.0164V22.0297H28.9L27.857 27.693H22.8382V40.3649C22.1023 40.4547 21.3531 40.5 20.5929 40.5C19.0499 40.5 17.5507 40.3118 16.1171 39.9563V27.693H12.2937V22.0297H16.1171V19.5891C16.1171 13.2813 18.9703 10.3555 25.1695 10.3555C26.3429 10.3555 28.3703 10.5875 29.2031 10.8188V15.9461C28.7687 15.9024 28.0085 15.8735 27.0593 15.8735C24.0179 15.8735 22.8445 17.025 22.8445 20.0157L22.846 20.0164Z" fill="#FAFBFF"/>
</g>
</svg>
