<svg width="46" height="45" viewBox="0 0 46 45" fill="none" xmlns="http://www.w3.org/2000/svg">
<path d="M23 44.9983C35.4264 44.9983 45.5 34.925 45.5 22.4991C45.5 10.0732 35.4264 0 23 0C10.5736 0 0.5 10.0732 0.5 22.4991C0.5 34.925 10.5736 44.9983 23 44.9983Z" fill="#E67320"/>
<path d="M36.8955 22.6459C36.8955 20.2852 36.0509 19.0961 34.6728 17.5704C34.8969 17.0106 35.629 14.7097 34.4487 11.7198C32.6478 11.1511 28.5029 14.0461 28.5029 14.0461C26.7793 13.5636 24.9266 13.314 23.0914 13.314C21.2563 13.314 19.4035 13.5636 17.68 14.0461C17.68 14.0461 13.5351 11.1599 11.7342 11.7198C10.5538 14.7009 11.286 17.0106 11.5101 17.5704C10.1311 19.0873 9.4763 20.2765 9.4763 22.6459C9.4763 30.9354 14.3366 31.6333 19.1531 32.1676C18.5325 32.7362 17.9727 33.6924 17.774 35.0714C16.5418 35.64 13.3795 36.5962 11.4925 33.2706C10.3121 31.2202 8.16673 31.0479 8.16673 31.0479C6.05559 31.0224 8.02874 32.375 8.02874 32.375C9.44202 33.021 10.4246 35.5284 10.4246 35.5284C11.6911 39.3884 17.7231 38.0965 17.7231 38.0965C17.7231 39.9061 17.7486 42.8529 17.7486 43.3873C17.7486 43.6887 17.6361 44.0253 17.3592 44.2415C19.1627 44.7363 21.062 45 23.022 45C24.982 45 26.97 44.7232 28.8114 44.2064C28.5503 43.9911 28.4413 43.6632 28.4413 43.3706C28.4413 42.664 28.4668 39.0711 28.4668 36.1673C28.4668 34.1424 27.7945 32.8496 27.0017 32.1693C31.819 31.6262 36.8938 30.9627 36.8938 22.6477L36.8955 22.6459ZM9.66614 32.0894C9.6055 32.2098 9.43323 32.2361 9.29524 32.15C9.12298 32.0639 9.03684 31.9259 9.09749 31.8143C9.15813 31.7282 9.29524 31.7027 9.46839 31.7536C9.64065 31.8398 9.72678 31.9778 9.66614 32.0894ZM10.5363 33.0456C10.4246 33.1572 10.226 33.0974 10.088 32.9594C9.94124 32.796 9.91575 32.5974 10.0274 32.5112C10.139 32.3996 10.3376 32.4594 10.4756 32.5974C10.6224 32.7608 10.6479 32.9595 10.5363 33.0456ZM11.3897 34.3208C11.2781 34.407 11.0451 34.3208 10.9072 34.1222C10.7692 33.9245 10.7692 33.7004 10.9072 33.6142C11.0451 33.5026 11.2693 33.5887 11.3897 33.7865C11.5277 33.9842 11.5277 34.2083 11.3897 34.3208ZM12.5613 35.5012C12.4496 35.6391 12.1991 35.6128 12.0014 35.415C11.8028 35.2516 11.7518 34.9932 11.8898 34.8807C12.0014 34.7427 12.2607 34.7691 12.4496 34.9668C12.6219 35.1303 12.6738 35.3887 12.5613 35.5012ZM14.1723 36.2078C14.1204 36.38 13.862 36.4662 13.6379 36.38C13.4103 36.3343 13.2494 36.1752 13.2565 36.0197C13.2292 35.9626 13.2231 35.9019 13.2433 35.8439C13.3039 35.6717 13.5535 35.5855 13.7777 35.6453C14.0071 35.7138 14.1609 35.8773 14.1574 36.0329C14.182 36.0909 14.189 36.1498 14.1723 36.2069V36.2078ZM15.4994 36.656C15.2147 36.6815 15.0169 36.5444 15.0169 36.3457V36.344C15.0002 36.3097 14.9932 36.2728 14.9932 36.2324C14.9932 36.0601 15.1909 35.9221 15.4414 35.9221C15.6998 35.8967 15.924 36.0338 15.924 36.2324C15.924 36.2341 15.924 36.2368 15.924 36.2385C15.9407 36.271 15.9486 36.3071 15.9486 36.3466C15.9486 36.5189 15.7508 36.6569 15.5003 36.6569L15.4994 36.656ZM17.1887 36.4582C16.9303 36.5189 16.7062 36.4064 16.6807 36.2341C16.6789 36.2183 16.6781 36.2034 16.6781 36.1884C16.6675 36.1665 16.6596 36.1445 16.6561 36.1208C16.6306 35.923 16.8029 35.7587 17.0525 35.6989C17.3021 35.6734 17.535 35.785 17.5605 35.9485C17.5631 35.9652 17.564 35.981 17.5622 35.9977C17.5737 36.0188 17.5816 36.0399 17.5842 36.0627C17.6097 36.235 17.4374 36.3985 17.1878 36.4591L17.1887 36.4582Z" fill="#FAFBFF"/>
</svg>
