<svg width="46" height="45" viewBox="0 0 46 45" fill="none" xmlns="http://www.w3.org/2000/svg">
<path d="M23 45C35.4264 45 45.5 34.9264 45.5 22.5C45.5 10.0736 35.4264 0 23 0C10.5736 0 0.5 10.0736 0.5 22.5C0.5 34.9264 10.5736 45 23 45Z" fill="#E67320"/>
<path d="M34.2826 22.768C34.2826 29.3106 29.8019 33.9671 23.1846 33.9671C16.5673 33.9671 11.7175 28.8439 11.7175 22.5C11.7175 16.156 16.8407 11.0329 23.1846 11.0329C26.2731 11.0329 28.872 12.1658 30.8742 14.0335L27.7532 17.0341C23.6698 13.0948 16.0778 16.0541 16.0778 22.5C16.0778 26.4999 19.2726 29.7413 23.1846 29.7413C27.725 29.7413 29.4266 26.4858 29.6956 24.7983H23.1846V20.8538H34.1015C34.2079 21.4409 34.2817 22.0052 34.2817 22.768H34.2826Z" fill="#FAFBFF"/>
</svg>
