<svg width="130" height="130" viewBox="0 0 130 130" fill="none" xmlns="http://www.w3.org/2000/svg">
<rect width="130" height="130" rx="65" fill="white"/>
<path d="M105.204 57.0698H101.908V56.9H65.0834V73.2667H88.2075C84.8339 82.7941 75.7688 89.6334 65.0834 89.6334C51.5257 89.6334 40.5334 78.6411 40.5334 65.0834C40.5334 51.5256 51.5257 40.5334 65.0834 40.5334C71.3416 40.5334 77.0352 42.8942 81.3703 46.7506L92.9436 35.1774C85.6359 28.3668 75.8609 24.1667 65.0834 24.1667C42.4872 24.1667 24.1667 42.4871 24.1667 65.0834C24.1667 87.6796 42.4872 106 65.0834 106C87.6796 106 106 87.6796 106 65.0834C106 62.3399 105.718 59.6619 105.204 57.0698Z" fill="#FBC02D"/>
<path d="M28.8843 46.0387L42.3274 55.8976C45.9649 46.8918 54.7743 40.5334 65.0833 40.5334C71.3415 40.5334 77.035 42.8942 81.3701 46.7506L92.9434 35.1774C85.6357 28.3668 75.8607 24.1667 65.0833 24.1667C49.3672 24.1667 35.7378 33.0395 28.8843 46.0387Z" fill="#E53935"/>
<path d="M65.0833 106C75.6521 106 85.2552 101.955 92.5159 95.378L79.8522 84.662C75.7441 87.7737 70.6377 89.6333 65.0833 89.6333C54.4409 89.6333 45.4044 82.8473 42.0002 73.3771L28.6572 83.6574C35.4289 96.9083 49.181 106 65.0833 106Z" fill="#4CAF50"/>
<path d="M105.204 57.0698L105.171 56.9H101.908H65.0833V73.2666H88.2073C86.587 77.8432 83.6431 81.7896 79.846 84.664L79.8521 84.6599L92.5158 95.376C91.6198 96.1902 106 85.5416 106 65.0833C106 62.3398 105.718 59.6618 105.204 57.0698Z" fill="#1565C0"/>
</svg>
