<svg width="41" height="41" viewBox="0 0 41 41" fill="none" xmlns="http://www.w3.org/2000/svg">
<g id="Group 6">
<path id="Vector" d="M20.75 40.5C31.7957 40.5 40.75 31.5457 40.75 20.5C40.75 9.4543 31.7957 0.5 20.75 0.5C9.7043 0.5 0.75 9.4543 0.75 20.5C0.75 31.5457 9.7043 40.5 20.75 40.5Z" fill="#0B6EE1"/>
<path id="Vector_2" d="M20.7523 15.0289C17.7234 15.0289 15.2812 17.4719 15.2812 20.5C15.2812 23.5281 17.7242 25.9711 20.7523 25.9711C23.7805 25.9711 26.2234 23.5281 26.2234 20.5C26.2234 17.4719 23.7805 15.0289 20.7523 15.0289ZM20.7523 24.057C18.7953 24.057 17.1953 22.4617 17.1953 20.5C17.1953 18.5383 18.7906 16.943 20.7523 16.943C22.7141 16.943 24.3094 18.5383 24.3094 20.5C24.3094 22.4617 22.7094 24.057 20.7523 24.057ZM27.7234 14.8047C27.7234 15.5141 27.1523 16.0813 26.4469 16.0813C25.7414 16.0813 25.1703 15.5102 25.1703 14.8047C25.1703 14.0992 25.7414 13.5281 26.4469 13.5281C27.1523 13.5281 27.7234 14.0992 27.7234 14.8047ZM31.3469 16.1C31.2656 14.3906 30.8758 12.8766 29.6234 11.6289C28.3758 10.3813 26.8617 9.99063 25.1523 9.90547C23.3906 9.80547 18.1094 9.80547 16.3477 9.90547C14.643 9.98672 13.1289 10.3766 11.8766 11.6242C10.6242 12.8719 10.2383 14.3859 10.1531 16.0953C10.0531 17.857 10.0531 23.1383 10.1531 24.9C10.2344 26.6094 10.6242 28.1234 11.8766 29.3711C13.1289 30.6188 14.6383 31.0094 16.3477 31.0945C18.1094 31.1945 23.3906 31.1945 25.1523 31.0945C26.8617 31.0133 28.3758 30.6234 29.6234 29.3711C30.8711 28.1234 31.2617 26.6094 31.3469 24.9C31.4469 23.1383 31.4469 17.8617 31.3469 16.1ZM29.0711 26.7906C28.7 27.7242 27.9805 28.443 27.0422 28.8195C25.6375 29.3766 22.3039 29.2484 20.7516 29.2484C19.1992 29.2484 15.8609 29.3719 14.4609 28.8195C13.5273 28.4484 12.8086 27.7289 12.432 26.7906C11.875 25.3859 12.0031 22.0524 12.0031 20.5C12.0031 18.9477 11.8797 15.6094 12.432 14.2094C12.8031 13.2758 13.5227 12.557 14.4609 12.1805C15.8656 11.6234 19.1992 11.7516 20.7516 11.7516C22.3039 11.7516 25.6422 11.6281 27.0422 12.1805C27.9758 12.5516 28.6945 13.2711 29.0711 14.2094C29.6281 15.6141 29.5 18.9477 29.5 20.5C29.5 22.0524 29.6289 25.3906 29.0711 26.7906Z" fill="#FAFBFF"/>
</g>
</svg>
