<svg width="46" height="45" viewBox="0 0 46 45" fill="none" xmlns="http://www.w3.org/2000/svg">
<path d="M23 45C35.4264 45 45.5 34.9264 45.5 22.5C45.5 10.0736 35.4264 0 23 0C10.5736 0 0.5 10.0736 0.5 22.5C0.5 34.9264 10.5736 45 23 45Z" fill="#E67320"/>
<path d="M17.1077 18.9185H12.6798V33.1532H17.1077V18.9185Z" fill="#FAFBFF"/>
<path d="M33.6725 25.3494V33.1523H29.2516V26.2283C29.2516 24.5768 29.2182 22.4534 26.955 22.4534C24.6918 22.4534 24.2981 24.2508 24.2981 26.1088V33.1532H19.8772V18.9184H24.1179V20.8626H24.1777C24.7701 19.7437 26.215 18.566 28.3657 18.566C32.8402 18.566 33.6725 21.5156 33.6725 25.3503V25.3494Z" fill="#FAFBFF"/>
<path d="M14.8903 16.9743C16.3062 16.9743 17.4541 15.8265 17.4541 14.4106C17.4541 12.9946 16.3062 11.8468 14.8903 11.8468C13.4744 11.8468 12.3265 12.9946 12.3265 14.4106C12.3265 15.8265 13.4744 16.9743 14.8903 16.9743Z" fill="#FAFBFF"/>
</svg>
