<svg width="119" height="190" viewBox="0 0 119 190" fill="none" xmlns="http://www.w3.org/2000/svg">
<path d="M30.9102 81.77V36.2C30.9102 28.6463 33.9109 21.402 39.2521 16.0607C44.5934 10.7194 51.8377 7.71875 59.3914 7.71875C66.9451 7.71875 74.1894 10.7194 79.5307 16.0607C84.872 21.402 87.8727 28.6463 87.8727 36.2V81.77C87.8727 89.3237 84.872 96.568 79.5307 101.909C74.1894 107.251 66.9451 110.251 59.3914 110.251C51.8377 110.251 44.5934 107.251 39.2521 101.909C33.9109 96.568 30.9102 89.3237 30.9102 81.77Z" stroke="white" stroke-width="15" stroke-linecap="round"/>
<path d="M8.125 101.982C15.1314 126.898 34.3619 141.856 59.3913 141.856M59.3913 141.856C84.4206 141.856 103.651 126.898 110.658 101.982M59.3913 141.856V181.73" stroke="white" stroke-width="15" stroke-linecap="round" stroke-linejoin="round"/>
</svg>
