<svg width="40" height="41" viewBox="0 0 40 41" fill="none" xmlns="http://www.w3.org/2000/svg">
<path d="M32.5016 16.7469C32.5016 20.333 31.3375 23.6457 29.3764 26.3333L39.2675 36.2322C40.2442 37.2088 40.2442 38.7948 39.2675 39.7715C38.2909 40.7481 36.7049 40.7481 35.7283 39.7715L25.8372 29.8725C23.1496 31.8414 19.8369 32.9977 16.2508 32.9977C7.27379 32.9977 0 25.7239 0 16.7469C0 7.76989 7.27379 0.496094 16.2508 0.496094C25.2278 0.496094 32.5016 7.76989 32.5016 16.7469ZM16.2508 27.9974C17.7282 27.9974 19.1912 27.7064 20.5562 27.141C21.9212 26.5756 23.1614 25.7469 24.2061 24.7022C25.2508 23.6575 26.0796 22.4173 26.6449 21.0523C27.2103 19.6873 27.5013 18.2243 27.5013 16.7469C27.5013 15.2694 27.2103 13.8065 26.6449 12.4415C26.0796 11.0765 25.2508 9.83626 24.2061 8.79155C23.1614 7.74684 21.9212 6.91813 20.5562 6.35274C19.1912 5.78734 17.7282 5.49634 16.2508 5.49634C14.7734 5.49634 13.3104 5.78734 11.9454 6.35274C10.5804 6.91813 9.34016 7.74684 8.29545 8.79155C7.25074 9.83626 6.42203 11.0765 5.85664 12.4415C5.29125 13.8065 5.00024 15.2694 5.00024 16.7469C5.00024 18.2243 5.29125 19.6873 5.85664 21.0523C6.42203 22.4173 7.25074 23.6575 8.29545 24.7022C9.34016 25.7469 10.5804 26.5756 11.9454 27.141C13.3104 27.7064 14.7734 27.9974 16.2508 27.9974Z" fill="#E67320"/>
</svg>
