<svg width="41" height="41" viewBox="0 0 41 41" fill="none" xmlns="http://www.w3.org/2000/svg">
<g id="SocialNetworks">
<path id="Vector" d="M20.75 40.5C31.7957 40.5 40.75 31.5457 40.75 20.5C40.75 9.4543 31.7957 0.5 20.75 0.5C9.7043 0.5 0.75 9.4543 0.75 20.5C0.75 31.5457 9.7043 40.5 20.75 40.5Z" fill="#0B6EE1"/>
<path id="Vector_2" d="M29.6429 18.6703C27.8945 18.6742 26.189 18.1281 24.7679 17.1102V24.2086C24.7672 27.7735 21.8758 30.6633 18.3109 30.6617C14.7461 30.661 11.8562 27.7695 11.8578 24.2047C11.8586 20.6399 14.75 17.75 18.3148 17.7516C18.6117 17.7516 18.9078 17.7719 19.2023 17.8133V21.382C17.6422 20.8906 15.9789 21.7578 15.4883 23.318C14.9969 24.8781 15.864 26.5414 17.4242 27.032C18.9844 27.5235 20.6476 26.6563 21.1383 25.0961C21.2289 24.8086 21.275 24.5094 21.275 24.2086V10.3367H24.7687C24.7664 10.632 24.7922 10.9274 24.8445 11.218C25.0898 12.5281 25.864 13.6797 26.9844 14.4024C27.7734 14.9235 28.6984 15.2008 29.6445 15.2V18.6695L29.6429 18.6703Z" fill="#FAFBFF"/>
</g>
</svg>
