<svg width="108" height="72" viewBox="0 0 108 72" fill="none" xmlns="http://www.w3.org/2000/svg">
<g id="Logo" clip-path="url(#clip0_90_768)">
<path id="leftEye" d="M41.9645 23.9837H41.9631C38.6484 23.9837 35.9612 26.6678 35.9612 29.9789V41.9721C35.9612 45.2832 38.6484 47.9674 41.9631 47.9674H41.9645C45.2792 47.9674 47.9664 45.2832 47.9664 41.9721V29.9789C47.9664 26.6678 45.2792 23.9837 41.9645 23.9837Z" fill="#353739"/>
<path id="rightEye" d="M65.9734 23.9837C69.2867 23.9837 71.9753 26.6707 71.9753 29.9789V41.9708C71.9753 45.2804 69.2853 47.9661 65.9734 47.9661C62.6601 47.9661 59.9715 45.2791 59.9715 41.9708V29.9789C59.9715 26.6693 62.6615 23.9837 65.9734 23.9837Z" fill="#353739"/>
<path id="upElement" d="M107.382 4.32659L98.1909 15.345C96.7661 17.0519 95.9856 19.2046 95.9856 21.4273V49.4052C95.9856 55.233 91.2554 59.958 85.4212 59.958H84.0425V42.021C87.3584 42.021 90.0458 39.3366 90.0458 36.0244C90.0458 32.7121 87.3584 30.0291 84.0425 30.0291V22.5947C84.0425 16.7669 79.3136 12.042 73.4781 12.042H23.9561V10.5527C23.9561 4.72496 28.6863 -3.05176e-05 34.5205 -3.05176e-05H105.354C107.592 -3.05176e-05 108.816 2.60913 107.382 4.32659Z" fill="#E67320"/>
<path id="downElement" d="M84.0425 59.958V61.4472C84.0425 67.2763 79.3136 72 73.4781 72H2.64637C0.406716 72 -0.816115 69.3921 0.616684 67.6734L9.80904 56.6563C11.2339 54.9481 12.013 52.7966 12.013 50.574V22.5947C12.013 16.7669 16.7433 12.042 22.5775 12.042H23.9561V29.979C20.6402 29.979 17.9529 32.6633 17.9529 35.9756C17.9529 39.2878 20.6402 41.9708 23.9561 41.9708V49.4052C23.9561 55.233 28.6863 59.958 34.5205 59.958H84.0425Z" fill="#0B6EE1"/>
</g>
<defs>
<clipPath id="clip0_90_768">
<rect width="108" height="72" fill="white"/>
</clipPath>
</defs>
</svg>
