<svg width="83" height="55" viewBox="0 0 83 55" fill="none" xmlns="http://www.w3.org/2000/svg">
<g id="Logo" clip-path="url(#clip0_90_769)">
<path id="leftEye" d="M32.0561 18.3209H32.0551C29.523 18.3209 27.4703 20.3713 27.4703 22.9006V32.062C27.4703 34.5914 29.523 36.6418 32.0551 36.6418H32.0561C34.5882 36.6418 36.6409 34.5914 36.6409 32.062V22.9006C36.6409 20.3713 34.5882 18.3209 32.0561 18.3209Z" fill="#FAFBFF"/>
<path id="rightEye" d="M50.3963 18.3209C52.9273 18.3209 54.9811 20.3734 54.9811 22.9006V32.061C54.9811 34.5892 52.9263 36.6408 50.3963 36.6408C47.8653 36.6408 45.8115 34.5882 45.8115 32.061V22.9006C45.8115 20.3724 47.8664 18.3209 50.3963 18.3209Z" fill="#FAFBFF"/>
<path id="upElement" d="M82.0279 3.30503L75.007 11.7218C73.9185 13.0257 73.3223 14.6702 73.3223 16.3681V37.7401C73.3223 42.1919 69.709 45.8012 65.2523 45.8012H64.1992V32.0993C66.7321 32.0993 68.785 30.0488 68.785 27.5186C68.785 24.9884 66.7321 22.9389 64.1992 22.9389V17.2598C64.1992 12.8081 60.5868 9.19871 56.1291 9.19871H18.2998V8.06109C18.2998 3.60933 21.9132 -3.05176e-05 26.3698 -3.05176e-05H80.4784C82.1883 -3.05176e-05 83.1234 1.99308 82.0279 3.30503Z" fill="#FAFBFF"/>
<path id="downElement" d="M64.1991 45.8012V46.9389C64.1991 51.3916 60.5868 55 56.1291 55H2.02151C0.310657 55 -0.62345 53.0079 0.471049 51.6949L7.49299 43.2791C8.58144 41.9742 9.1766 40.3308 9.1766 38.6329V17.2598C9.1766 12.8081 12.79 9.19873 17.2466 9.19873H18.2998V22.9006C15.7668 22.9006 13.714 24.9512 13.714 27.4813C13.714 30.0115 15.7668 32.0611 18.2998 32.0611V37.7401C18.2998 42.1919 21.9131 45.8012 26.3698 45.8012H64.1991Z" fill="#FAFBFF"/>
</g>
<defs>
<clipPath id="clip0_90_769">
<rect width="82.5" height="55" fill="white"/>
</clipPath>
</defs>
</svg>
